<svg class="lg" width="100%" height="181.666687" preserveAspectRatio="none" viewBox="0 0 1922 181.667" fill="none"
    xmlns="http://www.w3.org/2000/svg"
    xmlns:xlink="http://www.w3.org/1999/xlink">
    <path d="M1 74.6667L1 181.667" stroke="#101010" stroke-opacity="1.000000" stroke-width="2.000000" />
    <path d="M19.4614 74.6667L19.4614 181.667" stroke="#101010" stroke-opacity="1.000000" stroke-width="2.000000" />
    <path d="M37.9231 74.6667L37.9231 181.667" stroke="#101010" stroke-opacity="1.000000" stroke-width="2.000000" />
    <path d="M56.3845 74.6667L56.3845 181.667" stroke="#101010" stroke-opacity="1.000000" stroke-width="2.000000" />
    <path d="M74.8462 74.6667L74.8462 181.667" stroke="#101010" stroke-opacity="1.000000" stroke-width="2.000000" />
    <path d="M93.3076 74.6667L93.3076 181.667" stroke="#101010" stroke-opacity="1.000000" stroke-width="2.000000" />
    <path d="M111.769 74.6667L111.769 181.667" stroke="#101010" stroke-opacity="1.000000" stroke-width="2.000000" />
    <path d="M130.231 74.6667L130.231 181.667" stroke="#101010" stroke-opacity="1.000000" stroke-width="2.000000" />
    <path d="M148.692 74.6667L148.692 181.667" stroke="#101010" stroke-opacity="1.000000" stroke-width="2.000000" />
    <path d="M167.154 74.6667L167.154 181.667" stroke="#101010" stroke-opacity="1.000000" stroke-width="2.000000" />
    <path d="M185.615 74.6667L185.615 181.667" stroke="#101010" stroke-opacity="1.000000" stroke-width="2.000000" />
    <path d="M204.077 74.6667L204.077 181.667" stroke="#101010" stroke-opacity="1.000000" stroke-width="2.000000" />
    <path d="M222.538 74.6667L222.538 181.667" stroke="#101010" stroke-opacity="1.000000" stroke-width="2.000000" />
    <path d="M241 74.6667L241 181.667" stroke="#101010" stroke-opacity="1.000000" stroke-width="2.000000" />
    <path d="M259.461 74.6667L259.461 181.667" stroke="#101010" stroke-opacity="1.000000" stroke-width="2.000000" />
    <path d="M277.923 74.6667L277.923 181.667" stroke="#101010" stroke-opacity="1.000000" stroke-width="2.000000" />
    <path d="M296.385 74.6667L296.385 181.667" stroke="#101010" stroke-opacity="1.000000" stroke-width="2.000000" />
    <path d="M314.846 74.6667L314.846 181.667" stroke="#101010" stroke-opacity="1.000000" stroke-width="2.000000" />
    <path d="M333.308 74.6667L333.308 181.667" stroke="#101010" stroke-opacity="1.000000" stroke-width="2.000000" />
    <path d="M351.769 74.6667L351.769 181.667" stroke="#101010" stroke-opacity="1.000000" stroke-width="2.000000" />
    <path d="M370.231 74.6667L370.231 181.667" stroke="#101010" stroke-opacity="1.000000" stroke-width="2.000000" />
    <path d="M388.692 74.6667L388.692 181.667" stroke="#101010" stroke-opacity="1.000000" stroke-width="2.000000" />
    <path d="M407.154 74.6667L407.154 181.667" stroke="#101010" stroke-opacity="1.000000" stroke-width="2.000000" />
    <path d="M425.615 74.6667L425.615 181.667" stroke="#101010" stroke-opacity="1.000000" stroke-width="2.000000" />
    <path d="M444.077 74.6667L444.077 181.667" stroke="#101010" stroke-opacity="1.000000" stroke-width="2.000000" />
    <path d="M462.539 74.6667L462.539 181.667" stroke="#101010" stroke-opacity="1.000000" stroke-width="2.000000" />
    <path d="M481 74.6667L481 181.667" stroke="#101010" stroke-opacity="1.000000" stroke-width="2.000000" />
    <path d="M499.462 74.6667L499.462 181.667" stroke="#101010" stroke-opacity="1.000000" stroke-width="2.000000" />
    <path d="M517.923 74.6667L517.923 181.667" stroke="#101010" stroke-opacity="1.000000" stroke-width="2.000000" />
    <path d="M536.385 74.6667L536.385 181.667" stroke="#101010" stroke-opacity="1.000000" stroke-width="2.000000" />
    <path d="M554.846 74.6667L554.846 181.667" stroke="#101010" stroke-opacity="1.000000" stroke-width="2.000000" />
    <path d="M573.308 74.6667L573.308 181.667" stroke="#101010" stroke-opacity="1.000000" stroke-width="2.000000" />
    <path d="M591.769 74.6667L591.769 181.667" stroke="#101010" stroke-opacity="1.000000" stroke-width="2.000000" />
    <path d="M610.231 74.6667L610.231 181.667" stroke="#101010" stroke-opacity="1.000000" stroke-width="2.000000" />
    <path d="M628.692 74.6667L628.692 181.667" stroke="#101010" stroke-opacity="1.000000" stroke-width="2.000000" />
    <path d="M647.154 74.6667L647.154 181.667" stroke="#101010" stroke-opacity="1.000000" stroke-width="2.000000" />
    <path d="M665.615 74.6667L665.615 181.667" stroke="#101010" stroke-opacity="1.000000" stroke-width="2.000000" />
    <path d="M684.077 74.6667L684.077 181.667" stroke="#101010" stroke-opacity="1.000000" stroke-width="2.000000" />
    <path d="M702.539 74.6667L702.539 181.667" stroke="#101010" stroke-opacity="1.000000" stroke-width="2.000000" />
    <path d="M721 74.6667L721 181.667" stroke="#101010" stroke-opacity="1.000000" stroke-width="2.000000" />
    <path d="M739.462 74.6667L739.462 181.667" stroke="#101010" stroke-opacity="1.000000" stroke-width="2.000000" />
    <path d="M757.923 74.6667L757.923 181.667" stroke="#101010" stroke-opacity="1.000000" stroke-width="2.000000" />
    <path d="M776.385 74.6667L776.385 181.667" stroke="#101010" stroke-opacity="1.000000" stroke-width="2.000000" />
    <path d="M794.846 74.6667L794.846 181.667" stroke="#101010" stroke-opacity="1.000000" stroke-width="2.000000" />
    <path d="M813.308 74.6667L813.308 181.667" stroke="#101010" stroke-opacity="1.000000" stroke-width="2.000000" />
    <path d="M831.77 74.6667L831.77 181.667" stroke="#101010" stroke-opacity="1.000000" stroke-width="2.000000" />
    <path d="M850.231 74.6667L850.231 181.667" stroke="#101010" stroke-opacity="1.000000" stroke-width="2.000000" />
    <path d="M868.693 74.6667L868.693 181.667" stroke="#101010" stroke-opacity="1.000000" stroke-width="2.000000" />
    <path d="M887.154 74.6667L887.154 181.667" stroke="#101010" stroke-opacity="1.000000" stroke-width="2.000000" />
    <path d="M905.616 74.6667L905.616 181.667" stroke="#101010" stroke-opacity="1.000000" stroke-width="2.000000" />
    <path d="M924.077 74.6667L924.077 181.667" stroke="#101010" stroke-opacity="1.000000" stroke-width="2.000000" />
    <path d="M942.539 74.6667L942.539 181.667" stroke="#101010" stroke-opacity="1.000000" stroke-width="2.000000" />
    <path d="M961 74.6667L961 181.667" stroke="#101010" stroke-opacity="1.000000" stroke-width="2.000000" />
    <path d="M979.462 74.6667L979.462 181.667" stroke="#101010" stroke-opacity="1.000000" stroke-width="2.000000" />
    <path d="M997.923 74.6667L997.923 181.667" stroke="#101010" stroke-opacity="1.000000" stroke-width="2.000000" />
    <path d="M1016.39 74.6667L1016.39 181.667" stroke="#101010" stroke-opacity="1.000000" stroke-width="2.000000" />
    <path d="M1034.85 74.6667L1034.85 181.667" stroke="#101010" stroke-opacity="1.000000" stroke-width="2.000000" />
    <path d="M1053.31 74.6667L1053.31 181.667" stroke="#101010" stroke-opacity="1.000000" stroke-width="2.000000" />
    <path d="M1071.77 74.6667L1071.77 181.667" stroke="#101010" stroke-opacity="1.000000" stroke-width="2.000000" />
    <path d="M1090.23 74.6667L1090.23 181.667" stroke="#101010" stroke-opacity="1.000000" stroke-width="2.000000" />
    <path d="M1108.69 74.6667L1108.69 181.667" stroke="#101010" stroke-opacity="1.000000" stroke-width="2.000000" />
    <path d="M1127.15 74.6667L1127.15 181.667" stroke="#101010" stroke-opacity="1.000000" stroke-width="2.000000" />
    <path d="M1145.62 74.6667L1145.62 181.667" stroke="#101010" stroke-opacity="1.000000" stroke-width="2.000000" />
    <path d="M1164.08 74.6667L1164.08 181.667" stroke="#101010" stroke-opacity="1.000000" stroke-width="2.000000" />
    <path d="M1182.54 74.6667L1182.54 181.667" stroke="#101010" stroke-opacity="1.000000" stroke-width="2.000000" />
    <path d="M1201 74.6667L1201 181.667" stroke="#101010" stroke-opacity="1.000000" stroke-width="2.000000" />
    <path d="M1219.46 74.6667L1219.46 181.667" stroke="#101010" stroke-opacity="1.000000" stroke-width="2.000000" />
    <path d="M1237.92 74.6667L1237.92 181.667" stroke="#101010" stroke-opacity="1.000000" stroke-width="2.000000" />
    <path d="M1256.39 74.6667L1256.39 181.667" stroke="#101010" stroke-opacity="1.000000" stroke-width="2.000000" />
    <path d="M1274.85 74.6667L1274.85 181.667" stroke="#101010" stroke-opacity="1.000000" stroke-width="2.000000" />
    <path d="M1293.31 74.6667L1293.31 181.667" stroke="#101010" stroke-opacity="1.000000" stroke-width="2.000000" />
    <path d="M1311.77 74.6667L1311.77 181.667" stroke="#101010" stroke-opacity="1.000000" stroke-width="2.000000" />
    <path d="M1330.23 74.6667L1330.23 181.667" stroke="#101010" stroke-opacity="1.000000" stroke-width="2.000000" />
    <path d="M1348.69 74.6667L1348.69 181.667" stroke="#101010" stroke-opacity="1.000000" stroke-width="2.000000" />
    <path d="M1367.15 74.6667L1367.15 181.667" stroke="#101010" stroke-opacity="1.000000" stroke-width="2.000000" />
    <path d="M1385.62 74.6667L1385.62 181.667" stroke="#101010" stroke-opacity="1.000000" stroke-width="2.000000" />
    <path d="M1404.08 74.6667L1404.08 181.667" stroke="#101010" stroke-opacity="1.000000" stroke-width="2.000000" />
    <path d="M1422.54 74.6667L1422.54 181.667" stroke="#101010" stroke-opacity="1.000000" stroke-width="2.000000" />
    <path d="M1441 74.6667L1441 181.667" stroke="#101010" stroke-opacity="1.000000" stroke-width="2.000000" />
    <path d="M1459.46 74.6667L1459.46 181.667" stroke="#101010" stroke-opacity="1.000000" stroke-width="2.000000" />
    <path d="M1477.92 74.6667L1477.92 181.667" stroke="#101010" stroke-opacity="1.000000" stroke-width="2.000000" />
    <path d="M1496.39 74.6667L1496.39 181.667" stroke="#101010" stroke-opacity="1.000000" stroke-width="2.000000" />
    <path d="M1514.85 74.6667L1514.85 181.667" stroke="#101010" stroke-opacity="1.000000" stroke-width="2.000000" />
    <path d="M1533.31 74.6667L1533.31 181.667" stroke="#101010" stroke-opacity="1.000000" stroke-width="2.000000" />
    <path d="M1551.77 74.6667L1551.77 181.667" stroke="#101010" stroke-opacity="1.000000" stroke-width="2.000000" />
    <path d="M1570.23 74.6667L1570.23 181.667" stroke="#101010" stroke-opacity="1.000000" stroke-width="2.000000" />
    <path d="M1588.69 74.6667L1588.69 181.667" stroke="#101010" stroke-opacity="1.000000" stroke-width="2.000000" />
    <path d="M1607.15 74.6667L1607.15 181.667" stroke="#101010" stroke-opacity="1.000000" stroke-width="2.000000" />
    <path d="M1625.62 74.6667L1625.62 181.667" stroke="#101010" stroke-opacity="1.000000" stroke-width="2.000000" />
    <path d="M1644.08 74.6667L1644.08 181.667" stroke="#101010" stroke-opacity="1.000000" stroke-width="2.000000" />
    <path d="M1662.54 74.6667L1662.54 181.667" stroke="#101010" stroke-opacity="1.000000" stroke-width="2.000000" />
    <path d="M1681 74.6667L1681 181.667" stroke="#101010" stroke-opacity="1.000000" stroke-width="2.000000" />
    <path d="M1699.46 74.6667L1699.46 181.667" stroke="#101010" stroke-opacity="1.000000" stroke-width="2.000000" />
    <path d="M1717.92 74.6667L1717.92 181.667" stroke="#101010" stroke-opacity="1.000000" stroke-width="2.000000" />
    <path d="M1736.39 74.6667L1736.39 181.667" stroke="#101010" stroke-opacity="1.000000" stroke-width="2.000000" />
    <path d="M1754.85 74.6667L1754.85 181.667" stroke="#101010" stroke-opacity="1.000000" stroke-width="2.000000" />
    <path d="M1773.31 74.6667L1773.31 181.667" stroke="#101010" stroke-opacity="1.000000" stroke-width="2.000000" />
    <path d="M1791.77 74.6667L1791.77 181.667" stroke="#101010" stroke-opacity="1.000000" stroke-width="2.000000" />
    <path d="M1810.23 74.6667L1810.23 181.667" stroke="#101010" stroke-opacity="1.000000" stroke-width="2.000000" />
    <path d="M1828.69 74.6667L1828.69 181.667" stroke="#101010" stroke-opacity="1.000000" stroke-width="2.000000" />
    <path d="M1847.15 74.6667L1847.15 181.667" stroke="#101010" stroke-opacity="1.000000" stroke-width="2.000000" />
    <path d="M1865.62 74.6667L1865.62 181.667" stroke="#101010" stroke-opacity="1.000000" stroke-width="2.000000" />
    <path d="M1884.08 74.6667L1884.08 181.667" stroke="#101010" stroke-opacity="1.000000" stroke-width="2.000000" />
    <path d="M1902.54 74.6667L1902.54 181.667" stroke="#101010" stroke-opacity="1.000000" stroke-width="2.000000" />
    <path d="M1921 74.6667L1921 181.667" stroke="#101010" stroke-opacity="1.000000" stroke-width="2.000000" />
    <!-- <path id="rect62" -->
    <!-- d="M43.6667 160C297.667 160 337.667 93.3333 447.667 93.3333C557.667 93.3333 603 160 832.333 160L1921 160L1921 0L1 0L1 160L43.6667 160Z" fill="#FBFBFB" fill-opacity="1.000000" fill-rule="evenodd" /> -->
</svg>