<svg width="182" height="194" viewBox="0 0 182 194" fill="none" xmlns="http://www.w3.org/2000/svg">
<g filter="url(#filter0_d_2960_85395)">
<mask id="mask0_2960_85395" style="mask-type:alpha" maskUnits="userSpaceOnUse" x="48" y="48" width="86" height="98">
<path d="M134 90.8264C134 66.7943 114.036 47.4602 89.7159 48.3637C67.5737 49.2671 49.606 67.1557 48.6985 89.2002C47.9725 108.173 59.7696 124.526 76.4669 130.669C81.6394 132.566 85.9953 136.18 88.7176 140.969L91.3493 145.667L93.7994 141.149C96.4311 136.361 100.605 132.566 105.778 130.759C122.203 124.887 134 109.257 134 90.8264Z" fill="#2862F7"/>
</mask>
<g mask="url(#mask0_2960_85395)">
<g filter="url(#filter1_b_2960_85395)">
<circle cx="91.3334" cy="90.9999" r="54.6667" fill="#101010"/>
</g>
<path d="M113.752 84.4188C113.949 84.8731 114.075 85.2484 114.132 85.5139V104.516H113.752V84.4188Z" fill="white"/>
<path d="M111.056 80.1459C111.187 80.3039 111.314 80.4617 111.436 80.6188V104.516H111.056V80.1459Z" fill="white"/>
<path d="M108.358 77.4641C108.487 77.5689 108.614 77.6748 108.738 77.7817V104.516H108.358V77.4641Z" fill="white"/>
<path d="M105.66 75.6638C105.788 75.7324 105.915 75.8024 106.041 75.8737V104.516H105.66V75.6638Z" fill="white"/>
<path d="M102.962 74.5321C103.09 74.5719 103.217 74.6132 103.343 74.656V104.516H102.962V74.5321Z" fill="white"/>
<path d="M100.262 73.9553C100.39 73.9707 100.517 73.9876 100.643 74.0059V104.516H100.262V73.9553Z" fill="white"/>
<path d="M97.5705 73.8674C97.6973 73.8594 97.8241 73.8532 97.9509 73.849V104.516H97.5705V73.8674Z" fill="white"/>
<path d="M94.8726 74.3053C94.9994 74.273 95.1262 74.2422 95.253 74.213V104.516H94.8726V74.3053Z" fill="white"/>
<path d="M92.1747 75.2067C92.3015 75.1551 92.4283 75.1046 92.555 75.0555V104.516H92.1747V75.2067Z" fill="white"/>
<path d="M89.4788 76.4665C89.6056 76.4004 89.7324 76.3352 89.8592 76.2709V104.516H89.4788V76.4665Z" fill="white"/>
<path d="M86.7788 77.9853C86.9056 77.9095 87.0324 77.8343 87.1592 77.7596V104.516H86.7788V77.9853Z" fill="white"/>
<path d="M84.0809 79.6577C84.2077 79.577 84.3344 79.4966 84.4612 79.4163V104.516H84.0809V79.6577Z" fill="white"/>
<path d="M81.3871 81.3804C81.5139 81.2997 81.6407 81.2188 81.7675 81.1377V104.516H81.3871V81.3804Z" fill="white"/>
<path d="M78.685 83.0593C78.8118 82.9833 78.9386 82.9068 79.0654 82.8298V104.516H78.685V83.0593Z" fill="white"/>
<path d="M75.9892 84.5823C76.1159 84.5159 76.2427 84.4486 76.3695 84.3805V104.516H75.9892V84.5823Z" fill="white"/>
<path d="M73.2954 85.8483C73.4222 85.7964 73.5489 85.7433 73.6758 85.689V104.516H73.2954V85.8483Z" fill="white"/>
<path d="M70.5995 86.7532C70.7263 86.7208 70.8531 86.6869 70.9799 86.6515V104.516H70.5995V86.7532Z" fill="white"/>
<path d="M67.9016 87.1869C68.0284 87.1793 68.1552 87.1698 68.282 87.1585V104.516H67.9016V87.1869Z" fill="white"/>
<path d="M67.3335 95.093V104.514H68.0942V94.2256C67.7876 94.5526 67.5331 94.8488 67.3335 95.093Z" fill="white"/>
<path d="M70.0273 92.4468V104.514H70.788V91.8816C70.5222 92.0671 70.2685 92.2564 70.0273 92.4468Z" fill="white"/>
<path d="M72.7273 90.7367V104.514H73.488V90.396C73.2278 90.5025 72.9741 90.6165 72.7273 90.7367Z" fill="white"/>
<path d="M75.4252 89.7875V104.514H76.1859V89.647C75.9279 89.6854 75.6743 89.7325 75.4252 89.7875Z" fill="white"/>
<path d="M78.119 89.5311V104.514H78.8797V89.5717C78.6273 89.551 78.3737 89.5374 78.119 89.5311Z" fill="white"/>
<path d="M80.8211 89.8679V104.514H81.5818V90.0556C81.3289 89.9868 81.0754 89.9241 80.8211 89.8679Z" fill="white"/>
<path d="M83.5169 90.6977V104.514H84.2776V91.0086C84.0242 90.9 83.7706 90.7963 83.5169 90.6977Z" fill="white"/>
<path d="M86.2107 91.9223V104.514H86.9714V92.3228C86.7174 92.1858 86.4638 92.0522 86.2107 91.9223Z" fill="white"/>
<path d="M88.9086 93.4191V104.514H89.6693V93.8714C89.4148 93.7186 89.1612 93.5677 88.9086 93.4191Z" fill="white"/>
<path d="M91.6086 95.0528V104.514H92.3694V95.5201C92.189 95.4094 92.0093 95.299 91.8304 95.1891C91.7564 95.1436 91.6824 95.0982 91.6086 95.0528Z" fill="white"/>
<path d="M94.3024 96.6942V104.514H95.0631V97.1454C94.8078 96.9954 94.5543 96.8449 94.3024 96.6942Z" fill="white"/>
<path d="M97.0045 98.2519V104.514H97.7652V98.6639C97.5097 98.5278 97.2562 98.3904 97.0045 98.2519Z" fill="white"/>
<path d="M99.6962 99.6437V104.514H100.457V100.001C100.201 99.884 99.9477 99.7647 99.6962 99.6437Z" fill="white"/>
<path d="M102.394 100.833V104.514H103.155V101.127C102.899 101.032 102.646 100.933 102.394 100.833Z" fill="white"/>
<path d="M105.094 101.793V104.514H105.855V102.02C105.599 101.946 105.346 101.871 105.094 101.793Z" fill="white"/>
<path d="M107.79 102.51V104.514H108.551V102.669C108.295 102.619 108.042 102.566 107.79 102.51Z" fill="white"/>
<path d="M110.484 102.988V104.514H111.244V103.081C110.989 103.053 110.735 103.022 110.484 102.988Z" fill="white"/>
<path d="M113.182 103.234V104.514H113.942V103.262C113.687 103.256 113.433 103.246 113.182 103.234Z" fill="white"/>
<path d="M113.812 98.9476C114.565 99.6849 115.091 100.29 115.333 100.579V104.515H113.812V98.9476Z" fill="white"/>
<path d="M111.114 96.6528C111.664 97.0541 112.174 97.4649 112.636 97.8642V104.515H111.114V96.6528Z" fill="white"/>
<path d="M108.416 94.9988C108.945 95.2613 109.453 95.5502 109.938 95.8546V104.515H108.416V94.9988Z" fill="white"/>
<path d="M105.718 93.9816C106.238 94.1138 106.746 94.2808 107.24 94.4751V104.515H105.718V93.9816Z" fill="white"/>
<path d="M103.022 93.6472C103.059 93.6468 103.095 93.6466 103.132 93.6466C103.609 93.6466 104.08 93.6821 104.544 93.7481V104.515H103.022V93.6472Z" fill="white"/>
<path d="M100.327 94.0125C100.835 93.8859 101.342 93.7891 101.848 93.727V104.515H100.327V94.0125Z" fill="white"/>
<path d="M97.6244 94.9351C98.1332 94.72 98.6403 94.5259 99.1459 94.3575V104.515H97.6244V94.9351Z" fill="white"/>
<path d="M94.9286 96.2363C95.4379 95.9653 95.9449 95.7068 96.45 95.4653V104.515H94.9286V96.2363Z" fill="white"/>
<path d="M92.2328 97.7493C92.7425 97.4533 93.2496 97.1617 93.7542 96.8789V104.515H92.2328V97.7493Z" fill="white"/>
<path d="M89.5348 99.3191C90.045 99.0262 90.552 98.7304 91.0563 98.4357V104.515H89.5348V99.3191Z" fill="white"/>
<path d="M86.8369 100.803C87.3474 100.539 87.8545 100.264 88.3583 99.9845V104.515H86.8369V100.803Z" fill="white"/>
<path d="M84.1389 102.079C84.6498 101.864 85.1568 101.634 85.6604 101.392V104.515H84.1389V102.079Z" fill="white"/>
<path d="M81.4452 103.042C81.9562 102.895 82.4633 102.727 82.9666 102.542V104.515H81.4452V103.042Z" fill="white"/>
<path d="M78.7452 103.61C79.2564 103.545 79.7634 103.455 80.2666 103.343V104.515H78.7452V103.61Z" fill="white"/>
<path d="M76.0472 103.713C76.3036 103.727 76.5632 103.735 76.8257 103.735C77.0743 103.735 77.322 103.728 77.5687 103.716V104.515H76.0472V103.713Z" fill="white"/>
<path d="M73.3493 103.31C73.8364 103.426 74.3448 103.525 74.8707 103.598V104.515H73.3493V103.31Z" fill="white"/>
<path d="M70.6534 102.424C71.1198 102.619 71.6292 102.81 72.1749 102.983V104.515H70.6534V102.424Z" fill="white"/>
<path d="M67.9576 101.03C68.2852 101.239 68.8049 101.549 69.479 101.886V104.515H67.9576V101.03Z" fill="white"/>
<path d="M113.752 84.4188C113.949 84.8731 114.075 85.2484 114.132 85.5139V104.516H113.752V84.4188Z" stroke="white" stroke-width="0.266667" stroke-miterlimit="10"/>
<path d="M111.056 80.1459C111.187 80.3039 111.314 80.4617 111.436 80.6188V104.516H111.056V80.1459Z" stroke="white" stroke-width="0.266667" stroke-miterlimit="10"/>
<path d="M108.358 77.4641C108.487 77.5689 108.614 77.6748 108.738 77.7817V104.516H108.358V77.4641Z" stroke="white" stroke-width="0.266667" stroke-miterlimit="10"/>
<path d="M105.66 75.6638C105.788 75.7324 105.915 75.8024 106.041 75.8737V104.516H105.66V75.6638Z" stroke="white" stroke-width="0.266667" stroke-miterlimit="10"/>
<path d="M102.962 74.5321C103.09 74.5719 103.217 74.6132 103.343 74.656V104.516H102.962V74.5321Z" stroke="white" stroke-width="0.266667" stroke-miterlimit="10"/>
<path d="M100.262 73.9553C100.39 73.9707 100.517 73.9876 100.643 74.0059V104.516H100.262V73.9553Z" stroke="white" stroke-width="0.266667" stroke-miterlimit="10"/>
<path d="M97.5705 73.8674C97.6973 73.8594 97.8241 73.8532 97.9509 73.849V104.516H97.5705V73.8674Z" stroke="white" stroke-width="0.266667" stroke-miterlimit="10"/>
<path d="M94.8726 74.3053C94.9994 74.273 95.1262 74.2422 95.253 74.213V104.516H94.8726V74.3053Z" stroke="white" stroke-width="0.266667" stroke-miterlimit="10"/>
<path d="M92.1747 75.2067C92.3015 75.1551 92.4283 75.1046 92.555 75.0555V104.516H92.1747V75.2067Z" stroke="white" stroke-width="0.266667" stroke-miterlimit="10"/>
<path d="M89.4788 76.4665C89.6056 76.4004 89.7324 76.3352 89.8592 76.2709V104.516H89.4788V76.4665Z" stroke="white" stroke-width="0.266667" stroke-miterlimit="10"/>
<path d="M86.7788 77.9853C86.9056 77.9095 87.0324 77.8343 87.1592 77.7596V104.516H86.7788V77.9853Z" stroke="white" stroke-width="0.266667" stroke-miterlimit="10"/>
<path d="M84.0809 79.6577C84.2077 79.577 84.3344 79.4966 84.4612 79.4163V104.516H84.0809V79.6577Z" stroke="white" stroke-width="0.266667" stroke-miterlimit="10"/>
<path d="M81.3871 81.3804C81.5139 81.2997 81.6407 81.2188 81.7675 81.1377V104.516H81.3871V81.3804Z" stroke="white" stroke-width="0.266667" stroke-miterlimit="10"/>
<path d="M78.685 83.0593C78.8118 82.9833 78.9386 82.9068 79.0654 82.8298V104.516H78.685V83.0593Z" stroke="white" stroke-width="0.266667" stroke-miterlimit="10"/>
<path d="M75.9892 84.5823C76.1159 84.5159 76.2427 84.4486 76.3695 84.3805V104.516H75.9892V84.5823Z" stroke="white" stroke-width="0.266667" stroke-miterlimit="10"/>
<path d="M73.2954 85.8483C73.4222 85.7964 73.5489 85.7433 73.6758 85.689V104.516H73.2954V85.8483Z" stroke="white" stroke-width="0.266667" stroke-miterlimit="10"/>
<path d="M70.5995 86.7532C70.7263 86.7208 70.8531 86.6869 70.9799 86.6515V104.516H70.5995V86.7532Z" stroke="white" stroke-width="0.266667" stroke-miterlimit="10"/>
<path d="M67.9016 87.1869C68.0284 87.1793 68.1552 87.1698 68.282 87.1585V104.516H67.9016V87.1869Z" stroke="white" stroke-width="0.266667" stroke-miterlimit="10"/>
<path d="M67.3335 95.093V104.514H68.0942V94.2256C67.7876 94.5526 67.5331 94.8488 67.3335 95.093Z" stroke="white" stroke-width="0.266667" stroke-miterlimit="10"/>
<path d="M70.0273 92.4468V104.514H70.788V91.8816C70.5222 92.0671 70.2685 92.2564 70.0273 92.4468Z" stroke="white" stroke-width="0.266667" stroke-miterlimit="10"/>
<path d="M72.7273 90.7367V104.514H73.488V90.396C73.2278 90.5025 72.9741 90.6165 72.7273 90.7367Z" stroke="white" stroke-width="0.266667" stroke-miterlimit="10"/>
<path d="M75.4252 89.7875V104.514H76.1859V89.647C75.9279 89.6854 75.6743 89.7325 75.4252 89.7875Z" stroke="white" stroke-width="0.266667" stroke-miterlimit="10"/>
<path d="M78.119 89.5311V104.514H78.8797V89.5717C78.6273 89.551 78.3737 89.5374 78.119 89.5311Z" stroke="white" stroke-width="0.266667" stroke-miterlimit="10"/>
<path d="M80.8211 89.8679V104.514H81.5818V90.0556C81.3289 89.9868 81.0754 89.9241 80.8211 89.8679Z" stroke="white" stroke-width="0.266667" stroke-miterlimit="10"/>
<path d="M83.5169 90.6977V104.514H84.2776V91.0086C84.0242 90.9 83.7706 90.7963 83.5169 90.6977Z" stroke="white" stroke-width="0.266667" stroke-miterlimit="10"/>
<path d="M86.2107 91.9223V104.514H86.9714V92.3228C86.7174 92.1858 86.4638 92.0522 86.2107 91.9223Z" stroke="white" stroke-width="0.266667" stroke-miterlimit="10"/>
<path d="M88.9086 93.4191V104.514H89.6693V93.8714C89.4148 93.7186 89.1612 93.5677 88.9086 93.4191Z" stroke="white" stroke-width="0.266667" stroke-miterlimit="10"/>
<path d="M91.6086 95.0528V104.514H92.3694V95.5201C92.189 95.4094 92.0093 95.299 91.8304 95.1891C91.7564 95.1436 91.6824 95.0982 91.6086 95.0528Z" stroke="white" stroke-width="0.266667" stroke-miterlimit="10"/>
<path d="M94.3024 96.6942V104.514H95.0631V97.1454C94.8078 96.9954 94.5543 96.8449 94.3024 96.6942Z" stroke="white" stroke-width="0.266667" stroke-miterlimit="10"/>
<path d="M97.0045 98.2519V104.514H97.7652V98.6639C97.5097 98.5278 97.2562 98.3904 97.0045 98.2519Z" stroke="white" stroke-width="0.266667" stroke-miterlimit="10"/>
<path d="M99.6962 99.6437V104.514H100.457V100.001C100.201 99.884 99.9477 99.7647 99.6962 99.6437Z" stroke="white" stroke-width="0.266667" stroke-miterlimit="10"/>
<path d="M102.394 100.833V104.514H103.155V101.127C102.899 101.032 102.646 100.933 102.394 100.833Z" stroke="white" stroke-width="0.266667" stroke-miterlimit="10"/>
<path d="M105.094 101.793V104.514H105.855V102.02C105.599 101.946 105.346 101.871 105.094 101.793Z" stroke="white" stroke-width="0.266667" stroke-miterlimit="10"/>
<path d="M107.79 102.51V104.514H108.551V102.669C108.295 102.619 108.042 102.566 107.79 102.51Z" stroke="white" stroke-width="0.266667" stroke-miterlimit="10"/>
<path d="M110.484 102.988V104.514H111.244V103.081C110.989 103.053 110.735 103.022 110.484 102.988Z" stroke="white" stroke-width="0.266667" stroke-miterlimit="10"/>
<path d="M113.182 103.234V104.514H113.942V103.262C113.687 103.256 113.433 103.246 113.182 103.234Z" stroke="white" stroke-width="0.266667" stroke-miterlimit="10"/>
<path d="M113.812 98.9476C114.565 99.6849 115.091 100.29 115.333 100.579V104.515H113.812V98.9476Z" stroke="white" stroke-width="0.266667" stroke-miterlimit="10"/>
<path d="M111.114 96.6528C111.664 97.0541 112.174 97.4649 112.636 97.8642V104.515H111.114V96.6528Z" stroke="white" stroke-width="0.266667" stroke-miterlimit="10"/>
<path d="M108.416 94.9988C108.945 95.2613 109.453 95.5502 109.938 95.8546V104.515H108.416V94.9988Z" stroke="white" stroke-width="0.266667" stroke-miterlimit="10"/>
<path d="M105.718 93.9816C106.238 94.1138 106.746 94.2808 107.24 94.4751V104.515H105.718V93.9816Z" stroke="white" stroke-width="0.266667" stroke-miterlimit="10"/>
<path d="M103.022 93.6472C103.059 93.6468 103.095 93.6466 103.132 93.6466C103.609 93.6466 104.08 93.6821 104.544 93.7481V104.515H103.022V93.6472Z" stroke="white" stroke-width="0.266667" stroke-miterlimit="10"/>
<path d="M100.327 94.0125C100.835 93.8859 101.342 93.7891 101.848 93.727V104.515H100.327V94.0125Z" stroke="white" stroke-width="0.266667" stroke-miterlimit="10"/>
<path d="M97.6244 94.9351C98.1332 94.72 98.6403 94.5259 99.1459 94.3575V104.515H97.6244V94.9351Z" stroke="white" stroke-width="0.266667" stroke-miterlimit="10"/>
<path d="M94.9286 96.2363C95.4379 95.9653 95.9449 95.7068 96.45 95.4653V104.515H94.9286V96.2363Z" stroke="white" stroke-width="0.266667" stroke-miterlimit="10"/>
<path d="M92.2328 97.7493C92.7425 97.4533 93.2496 97.1617 93.7542 96.8789V104.515H92.2328V97.7493Z" stroke="white" stroke-width="0.266667" stroke-miterlimit="10"/>
<path d="M89.5348 99.3191C90.045 99.0262 90.552 98.7304 91.0563 98.4357V104.515H89.5348V99.3191Z" stroke="white" stroke-width="0.266667" stroke-miterlimit="10"/>
<path d="M86.8369 100.803C87.3474 100.539 87.8545 100.264 88.3583 99.9845V104.515H86.8369V100.803Z" stroke="white" stroke-width="0.266667" stroke-miterlimit="10"/>
<path d="M84.1389 102.079C84.6498 101.864 85.1568 101.634 85.6604 101.392V104.515H84.1389V102.079Z" stroke="white" stroke-width="0.266667" stroke-miterlimit="10"/>
<path d="M81.4452 103.042C81.9562 102.895 82.4633 102.727 82.9666 102.542V104.515H81.4452V103.042Z" stroke="white" stroke-width="0.266667" stroke-miterlimit="10"/>
<path d="M78.7452 103.61C79.2564 103.545 79.7634 103.455 80.2666 103.343V104.515H78.7452V103.61Z" stroke="white" stroke-width="0.266667" stroke-miterlimit="10"/>
<path d="M76.0472 103.713C76.3036 103.727 76.5632 103.735 76.8257 103.735C77.0743 103.735 77.322 103.728 77.5687 103.716V104.515H76.0472V103.713Z" stroke="white" stroke-width="0.266667" stroke-miterlimit="10"/>
<path d="M73.3493 103.31C73.8364 103.426 74.3448 103.525 74.8707 103.598V104.515H73.3493V103.31Z" stroke="white" stroke-width="0.266667" stroke-miterlimit="10"/>
<path d="M70.6534 102.424C71.1198 102.619 71.6292 102.81 72.1749 102.983V104.515H70.6534V102.424Z" stroke="white" stroke-width="0.266667" stroke-miterlimit="10"/>
<path d="M67.9576 101.03C68.2852 101.239 68.8049 101.549 69.479 101.886V104.515H67.9576V101.03Z" stroke="white" stroke-width="0.266667" stroke-miterlimit="10"/>
</g>
</g>
<defs>
<filter id="filter0_d_2960_85395" x="0.666748" y="0.333252" width="181.333" height="193.333" filterUnits="userSpaceOnUse" color-interpolation-filters="sRGB">
<feFlood flood-opacity="0" result="BackgroundImageFix"/>
<feColorMatrix in="SourceAlpha" type="matrix" values="0 0 0 0 0 0 0 0 0 0 0 0 0 0 0 0 0 0 127 0" result="hardAlpha"/>
<feOffset/>
<feGaussianBlur stdDeviation="24"/>
<feComposite in2="hardAlpha" operator="out"/>
<feColorMatrix type="matrix" values="0 0 0 0 0 0 0 0 0 0 0 0 0 0 0 0 0 0 0.15 0"/>
<feBlend mode="normal" in2="BackgroundImageFix" result="effect1_dropShadow_2960_85395"/>
<feBlend mode="normal" in="SourceGraphic" in2="effect1_dropShadow_2960_85395" result="shape"/>
</filter>
<filter id="filter1_b_2960_85395" x="-37.9999" y="-38.3334" width="258.667" height="258.667" filterUnits="userSpaceOnUse" color-interpolation-filters="sRGB">
<feFlood flood-opacity="0" result="BackgroundImageFix"/>
<feGaussianBlur in="BackgroundImageFix" stdDeviation="37.3333"/>
<feComposite in2="SourceAlpha" operator="in" result="effect1_backgroundBlur_2960_85395"/>
<feBlend mode="normal" in="SourceGraphic" in2="effect1_backgroundBlur_2960_85395" result="shape"/>
</filter>
</defs>
</svg>
