<svg width="270" height="30" viewBox="0 0 270 30" fill="none" xmlns="http://www.w3.org/2000/svg">
<path d="M110.486 22.7915C97.9979 22.7915 89.7019 18.0969 89.7019 14.9924C89.7019 11.8879 97.9979 7.19334 110.486 7.19334C122.974 7.19334 131.27 11.8879 131.27 14.9924C131.27 18.0969 122.974 22.7915 110.486 22.7915ZM110.486 0C94.656 0 82.7251 6.45129 82.7251 14.9924C82.7251 23.5336 94.656 29.9849 110.486 29.9849C126.316 29.9849 138.247 23.5487 138.247 14.9924C138.247 6.43614 126.316 0 110.486 0Z" fill="white"/>
<path d="M175.798 0.560303H152.259C152.259 0.560303 152.801 21.4286 138.818 23.0944V29.9545C155.029 28.9551 157.814 12.8723 158.327 7.51134H169.115V29.5002H175.828V0.560303H175.798Z" fill="white"/>
<path d="M0 14.9924C0 23.5184 11.9163 29.9697 27.7167 29.9697C32.6562 29.9697 37.2292 29.3488 41.1574 28.213V20.6714C37.669 21.898 33.0813 22.7764 27.7167 22.7764C15.2288 22.7764 6.9475 18.0969 6.9475 14.9924C6.9475 11.8879 15.2288 7.20847 27.7167 7.20847C33.0813 7.20847 37.669 8.08681 41.1574 9.31346V1.78696C37.2146 0.651172 32.6562 0.0302734 27.7167 0.0302734C11.9163 0.0302734 0 6.46642 0 14.9924Z" fill="white"/>
<path d="M86.4921 29.4397L68.7276 14.2656C72.8316 11.5397 77.0822 7.2388 80.2775 0.454346H72.4505C69.3432 9.26808 58.3503 13.1146 54.8912 13.054V0.46949H48.1782V29.5003H54.8912V19.0207C54.8912 19.0207 58.0718 19.0207 62.381 17.4761L76.5692 29.4549H86.4921V29.4397Z" fill="white"/>
<path d="M222.203 29.4397L204.439 14.2656C208.543 11.5397 212.793 7.2388 215.988 0.454346H208.161C205.054 9.26808 194.061 13.1146 190.602 13.054V0.46949H183.889V29.5003H190.602V19.0207C190.602 19.0207 193.783 19.0207 198.092 17.4761L212.28 29.4549H222.203V29.4397Z" fill="white"/>
<path d="M243.734 23.0035C231.408 23.0035 223.229 18.0363 223.229 15.053C223.229 12.0697 231.408 6.93589 243.734 6.93589C256.061 6.93589 264.24 12.0697 264.24 15.053C264.24 18.0363 256.061 23.0035 243.734 23.0035ZM263.287 0.484604V5.27007C258.465 2.36244 251.4 0 243.265 0C228.022 0 216.531 6.81474 216.531 15.053C216.531 23.2913 228.022 29.9394 243.265 29.9394C251.4 29.9394 258.465 27.7133 263.287 24.8057V29.47H270V0.484604H263.287Z" fill="white"/>
</svg>
